<?xml version="1.0" encoding="UTF-8"?>
<svg id="Layer_2" data-name="Layer 2" xmlns="http://www.w3.org/2000/svg" viewBox="0 0 65 63.77">
  <defs>
    <style>
      
@keyframes morph {
    0% {
        d: path('M34.41,4.78c-1.19,2.08-1.82,3.98-1.54,5.94.41,2.82,2.33,4.88,4.25,6.8,3.37,3.37,6.16,7.12,7.15,11.72.59,2.74.62,5.66-.38,8.5-1.09,3.11-2.96,5.54-5.81,7.22-1.06.62-2.23,1.08-3.39,1.51-.97.36-1.54-.34-1.41-1.55.18-1.68.39-3.37.47-5.06.1-2.2-.57-4.22-1.92-5.99-1.95-2.54-3.98-5.02-5.91-7.58-3.64-4.81-5.57-10.51-2.6-15.78,2.4-4.25,5.18-5.8,9.39-7.09,1.4-.43,2.4-.05,1.68,1.36Z');
    }
    33% {
        d: path('M27.1.56c.73,1.69,1.47,4.75,2.63,7.43,1.33,2.88,4.95,9.11,6.87,11.03,3.37,3.37,6.16,7.12,7.15,11.72.59,2.74.62,5.66-.38,8.5-1.09,3.11-2.96,5.54-5.81,7.22-1.06.62-2.23,1.08-3.39,1.51-.97.36-1.54-.34-1.41-1.55.18-1.68.39-3.37.47-5.06.1-2.2-.8-4.07-1.92-5.99-1.76-3.03-6.44-9.44-7.78-12.32-2.47-5.29-1.29-11.14.33-16.5.46-1.53.57-3.17.81-5.53.11-1.09,2.01-1.43,2.43-.47Z');
    }
    66% {
		d:path('M42.01,5.9c-1.45,1.82-2.38,3.57-2.53,5.54-.22,2.84,1.02,5.19,2.29,7.42,2.22,3.9,3.87,8.07,3.79,12.76-.05,2.79-.62,5.66-2.05,8.26-1.57,2.85-3.68,4.89-6.48,6.03-1.04.42-2.15.66-3.24.87-.91.18-1.26-.6-.9-1.77.5-1.62,1.03-3.23,1.43-4.87.53-2.14.37-4.24-.44-6.21-1.16-2.84-2.41-5.63-3.56-8.48-2.16-5.36-2.68-11.29.96-15.92,2.94-3.73,5.65-4.76,9.55-5.26,1.29-.17,2.09.38,1.17,1.63Z');
	}
	100% {
        d: path('M34.41,4.78c-1.19,2.08-1.82,3.98-1.54,5.94.41,2.82,2.33,4.88,4.25,6.8,3.37,3.37,6.16,7.12,7.15,11.72.59,2.74.62,5.66-.38,8.5-1.09,3.11-2.96,5.54-5.81,7.22-1.06.62-2.23,1.08-3.39,1.51-.97.36-1.54-.34-1.41-1.55.18-1.68.39-3.37.47-5.06.1-2.2-.57-4.22-1.92-5.99-1.95-2.54-3.98-5.02-5.91-7.58-3.64-4.81-5.57-10.51-2.6-15.78,2.4-4.25,5.18-5.8,9.39-7.09,1.4-.43,2.4-.05,1.68,1.36Z');
	}
}

#p1 {
    animation: morph 10s infinite ;
}

	   
	  
	  .cls-1 {
        fill: #00386c;
      }

      .cls-1, .cls-2, .cls-3, .cls-4 {
        stroke-width: 0px;
      }

      .cls-2 {
        fill: #72c8fc;
        opacity: .58;
      }

      .cls-3 {
        fill: #ffb30e;
      }

      .cls-4 {
        fill: #fc32af;
        opacity: .55;
      }
	  
	  
	  
    </style>
  </defs>
    <path class="cls-3" d="M30.83,41.37c-.1,1.92-1.07,3.8-3.15,5.03-.72.43-1.66-.03-1.48-.8.76-3.2-1.34-5.14-3.01-7.29-1.18-1.51-1.94-3.18-1.86-5.16.07-1.89.98-3.34,2.37-4.49.92-.76,2.19-.32,2.1.74-.21,2.46,1.19,4.05,2.68,5.66,1.54,1.65,2.39,3.58,2.35,6.31Z"/>
    <path class="cls-1" d="M62.32,39.31l-13.07-7.14c.09,1.84-.12,3.72-.76,5.57-.08.24-.18.47-.28.7l9.77,5.34-25.48,13.91-25.48-13.91,10.49-5.72c-1.06-1.44-1.74-3.03-1.67-4.9.01-.39.07-.76.16-1.11l-13.31,7.27c-1.65.9-2.68,2.61-2.68,4.47s1.03,3.56,2.68,4.47l27.27,14.88c.79.43,1.67.65,2.55.65s1.77-.21,2.55-.65l27.27-14.88c1.65-.9,2.68-2.61,2.68-4.47s-1.03-3.56-2.68-4.47Z"/>

    <path id="p1" class="cls-1" d="M34.41,4.78c-1.19,2.08-1.82,3.98-1.54,5.94.41,2.82,2.33,4.88,4.25,6.8,3.37,3.37,6.16,7.12,7.15,11.72.59,2.74.62,5.66-.38,8.5-1.09,3.11-2.96,5.54-5.81,7.22-1.06.62-2.23,1.08-3.39,1.51-.97.36-1.54-.34-1.41-1.55.18-1.68.39-3.37.47-5.06.1-2.2-.57-4.22-1.92-5.99-1.95-2.54-3.98-5.02-5.91-7.58-3.64-4.81-5.57-10.51-2.6-15.78,2.4-4.25,5.18-5.8,9.39-7.09,1.4-.43,2.4-.05,1.68,1.36Z"/>
</svg>