<?xml version="1.0" encoding="UTF-8"?>
<svg id="Layer_2" data-name="Layer 2" xmlns="http://www.w3.org/2000/svg" viewBox="0 0 65 63.77">
  <defs>
    <style>
      
@keyframes morph {
    0% {
        d: path('M34.75,2.01c-1.19,2.08-1.82,3.98-1.54,5.94.41,2.82,2.33,4.88,4.25,6.8,3.37,3.37,6.16,7.12,7.15,11.72.59,2.74.62,5.66-.38,8.5-1.09,3.11-2.96,5.54-5.81,7.22-1.06.62-2.23,1.08-3.39,1.51-.97.36-1.54-.34-1.41-1.55.18-1.68.39-3.37.47-5.06.1-2.2-.57-4.22-1.92-5.99-1.95-2.54-3.98-5.02-5.91-7.58-3.64-4.81-5.57-10.51-2.6-15.78,2.4-4.25,5.18-5.8,9.39-7.09,1.4-.43,2.4-.05,1.68,1.36Z');
    }
    33% {
        d: path('M28.67.82c.4,1.28.13,3.92,1.37,6.36,1.42,2.62,5.58,8.4,7.62,10.15,3.59,3.07,6.56,6.49,7.62,10.68.63,2.5.66,5.16-.4,7.74-1.16,2.84-3.15,5.04-6.19,6.58-1.13.57-2.38.98-3.62,1.38-1.03.33-1.64-.31-1.5-1.42.19-1.53.42-3.07.5-4.61.1-2-.85-3.7-2.04-5.46-1.88-2.76-6.87-8.6-8.3-11.22-2.63-4.82-1.38-10.15.35-15.03.49-1.39,1.25-2.95,2.25-5.02.55-1.15,1.97-1.34,2.34-.14Z');
    }
    66% {
		d:path('M42.79,3.05c-1.44,1.81-2.38,3.55-2.53,5.51-.21,2.83,1.03,5.17,2.3,7.39,2.22,3.89,3.87,8.05,3.8,12.72-.04,2.78-.61,5.64-2.05,8.22-1.57,2.84-3.68,4.87-6.47,6-1.04.42-2.15.65-3.23.87-.91.18-1.26-.6-.9-1.77.5-1.61,1.02-3.21,1.43-4.85.53-2.13.37-4.22-.44-6.18-1.16-2.83-2.42-5.61-3.57-8.45-2.17-5.35-2.68-11.25.95-15.86,2.93-3.72,5.65-4.73,9.55-5.23,1.29-.17,2.09.38,1.17,1.62Z');
	}
	100% {
        d: path('M34.75,2.01c-1.19,2.08-1.82,3.98-1.54,5.94.41,2.82,2.33,4.88,4.25,6.8,3.37,3.37,6.16,7.12,7.15,11.72.59,2.74.62,5.66-.38,8.5-1.09,3.11-2.96,5.54-5.81,7.22-1.06.62-2.23,1.08-3.39,1.51-.97.36-1.54-.34-1.41-1.55.18-1.68.39-3.37.47-5.06.1-2.2-.57-4.22-1.92-5.99-1.95-2.54-3.98-5.02-5.91-7.58-3.64-4.81-5.57-10.51-2.6-15.78,2.4-4.25,5.18-5.8,9.39-7.09,1.4-.43,2.4-.05,1.68,1.36Z');
	}
}


@keyframes morph2 {
    0% {
        d: path('M30.45,38.6c-.1,1.92-1.07,3.8-3.15,5.03-.72.43-1.66-.03-1.48-.8.76-3.2-1.34-5.14-3.01-7.29-1.18-1.51-1.94-3.18-1.86-5.16.07-1.89.98-3.34,2.37-4.49.92-.76,2.19-.32,2.1.74-.21,2.46,1.19,4.05,2.68,5.66,1.54,1.65,2.39,3.58,2.35,6.31Z');
    }
    33% {
        d: path('M31.72,35.95c0,3.57-1.7,5.86-4.08,7.63-.83.62-1.97.06-1.81-.99.69-4.33-1.92-6.81-4.05-9.59-1.49-1.96-2.19-4.57-1.77-7.19.52-3.25,4.98-7.55,7.13-8.28,1.74-.59,2.71.54,1.89,1.38-2.77,2.83-3.23,7.2-2.14,9.08,1.52,2.32,4.61,4.7,4.82,7.96Z');
    }
    66% {
        d: path('M32.5,33.96c0,4.4-2.6,7.46-4.98,9.58-.83.74-1.97.03-1.81-1.25.69-5.32-1.92-8.42-4.04-11.9-1.49-2.44-2.5-5.16-2.54-8.43-.04-3.13.82-6.46,2.39-8.43,1.04-1.3,2.57-.63,2.53,1.13-.09,4.07,1.33,5.29,3.05,7.95,1.87,2.61,5.19,7.35,5.4,11.36Z');
	}
	100% {
        d: path('M30.45,38.6c-.1,1.92-1.07,3.8-3.15,5.03-.72.43-1.66-.03-1.48-.8.76-3.2-1.34-5.14-3.01-7.29-1.18-1.51-1.94-3.18-1.86-5.16.07-1.89.98-3.34,2.37-4.49.92-.76,2.19-.32,2.1.74-.21,2.46,1.19,4.05,2.68,5.66,1.54,1.65,2.39,3.58,2.35,6.31Z');
	}
}


@keyframes morph_base {
    0% {
        d: path('M62.32,60.33l-13.07-.19c.09.05-.12.1-.76.15-.08,0-.18.01-.28.02l9.77.15-25.48.38-25.48-.38,10.49-.16c-1.06-.04-1.74-.08-1.67-.13.01-.01.07-.02.16-.03l-13.31.2c-1.65.02-2.68.07-2.68.12s1.03.1,2.68.12l27.27.41c.79.01,1.67.02,2.55.02s1.77,0,2.55-.02l27.27-.41c1.65-.02,2.68-.07,2.68-.12s-1.03-.1-2.68-.12Z');
    }

	100% {
        d: path('M62.32,39.31l-13.07-7.14c.09,1.84-.12,3.72-.76,5.57-.08.24-.18.47-.28.7l9.77,5.34-25.48,13.91-25.48-13.91,10.49-5.72c-1.06-1.44-1.74-3.03-1.67-4.9.01-.39.07-.76.16-1.11l-13.31,7.27c-1.65.9-2.68,2.61-2.68,4.47s1.03,3.56,2.68,4.47l27.27,14.88c.79.43,1.67.65,2.55.65s1.77-.21,2.55-.65l27.27-14.88c1.65-.9,2.68-2.61,2.68-4.47s-1.03-3.56-2.68-4.47Z');
	}
}

#p1 {
    animation: morph 10s infinite ;
}

#small_flame {
    animation: morph2 10s infinite ;
}


#base {
    animation: morph_base 10s infinite ease-out ;
}
	   
	  
	  .cls-1 {
        fill: #00386c;
      }

      .cls-1, .cls-2, .cls-3, .cls-4 {
        stroke-width: 0px;
      }

      .cls-2 {
        fill: #72c8fc;
        opacity: .58;
      }

      .cls-3 {
        fill: #ffb30e;
      }

      .cls-4 {
        fill: #fc32af;
        opacity: .55;
      }
	  
	  
	  
    </style>
  </defs>
    <path id ="base" class="cls-1" d="M62.32,39.31l-13.07-7.14c.09,1.84-.12,3.72-.76,5.57-.08.24-.18.47-.28.7l9.77,5.34-25.48,13.91-25.48-13.91,10.49-5.72c-1.06-1.44-1.74-3.03-1.67-4.9.01-.39.07-.76.16-1.11l-13.31,7.27c-1.65.9-2.68,2.61-2.68,4.47s1.03,3.56,2.68,4.47l27.27,14.88c.79.43,1.67.65,2.55.65s1.77-.21,2.55-.65l27.27-14.88c1.65-.9,2.68-2.61,2.68-4.47s-1.03-3.56-2.68-4.47Z"/>

    <path id="p1" class="cls-1" d="M34.75,2.01c-1.19,2.08-1.82,3.98-1.54,5.94.41,2.82,2.33,4.88,4.25,6.8,3.37,3.37,6.16,7.12,7.15,11.72.59,2.74.62,5.66-.38,8.5-1.09,3.11-2.96,5.54-5.81,7.22-1.06.62-2.23,1.08-3.39,1.51-.97.36-1.54-.34-1.41-1.55.18-1.68.39-3.37.47-5.06.1-2.2-.57-4.22-1.92-5.99-1.95-2.54-3.98-5.02-5.91-7.58-3.64-4.81-5.57-10.51-2.6-15.78,2.4-4.25,5.18-5.8,9.39-7.09,1.4-.43,2.4-.05,1.68,1.36Z"/>
    <path id="small_flame" class="cls-3" d="M30.45,38.6c-.1,1.92-1.07,3.8-3.15,5.03-.72.43-1.66-.03-1.48-.8.76-3.2-1.34-5.14-3.01-7.29-1.18-1.51-1.94-3.18-1.86-5.16.07-1.89.98-3.34,2.37-4.49.92-.76,2.19-.32,2.1.74-.21,2.46,1.19,4.05,2.68,5.66,1.54,1.65,2.39,3.58,2.35,6.31Z"/>

</svg>