<?xml version="1.0" encoding="UTF-8"?>
<svg id="Layer_1" data-name="Layer 1" xmlns="http://www.w3.org/2000/svg" viewBox="0 0 20 20">
  <defs>
    <style>
      .cls-1 {
        fill: #00adee;
      }

      .cls-1, .cls-2 {
        stroke-width: 0px;
      }

      .cls-2 {
        fill: #00386c;
      }
    </style>
  </defs>
  <path class="cls-1" d="M13.47,13.57l-5-3c-.15-.09-.35-.09-.5,0-.16.09-.25.25-.25.44v2.5H2.78c-.28,0-.5.22-.5.5s.22.5.5.5h4.94v2.5c0,.18.1.35.25.44.08.04.16.06.25.06s.18-.02.26-.07l5-3c.15-.09.24-.25.24-.43s-.09-.34-.24-.43Z"/>
  <path class="cls-2" d="M19.5,20H.5c-.28,0-.5-.22-.5-.5v-3.4c0-.28.22-.5.5-.5s.5.22.5.5v2.9h18V1h-4v7.54c0,.18-.09.34-.25.43-.15.09-.34.09-.5,0l-6.25-3.57v3.18c0,.18-.1.34-.25.43-.15.09-.34.09-.5,0L1,5.41v6.29c0,.28-.22.5-.5.5s-.5-.22-.5-.5v-7.16c0-.18.1-.34.25-.43.15-.09.34-.09.5,0l6.25,3.61v-3.17c0-.18.09-.34.25-.43.15-.09.34-.09.5,0l6.25,3.57V.5c0-.28.22-.5.5-.5h5c.28,0,.5.22.5.5v19c0,.28-.22.5-.5.5Z"/>
</svg>