<?xml version="1.0" encoding="UTF-8"?>
<svg id="Layer_1" data-name="Layer 1" xmlns="http://www.w3.org/2000/svg" viewBox="0 0 20 20">
  <defs>
    <style>
      .cls-1 {
        fill: #00adee;
      }

      .cls-1, .cls-2 {
        stroke-width: 0px;
      }

      .cls-2 {
        fill: #00386c;
      }
    </style>
  </defs>
  <path class="cls-1" d="M13.08,9.57l-5-3c-.15-.09-.35-.09-.5,0-.16.09-.25.25-.25.44v2.5s-4.94,0-4.94,0c-.28,0-.5.22-.5.5s.22.5.5.5h4.94v2.5c0,.18.1.35.25.44.08.04.16.06.25.06s.18-.02.26-.07l5-3c.15-.09.24-.25.24-.43s-.09-.34-.24-.43Z"/>
  <path class="cls-2" d="M5.7,17c-.1,0-.2-.03-.28-.09-.14-.09-.22-.25-.22-.41v-4.44c0-.28.22-.5.5-.5s.5.22.5.5v3.7l8-3.11v-5.31l-8-3.11v3.7c0,.28-.22.5-.5.5s-.5-.22-.5-.5V3.5c0-.17.08-.32.22-.41.14-.09.31-.11.46-.05l9,3.5c.19.07.32.26.32.47v6c0,.21-.13.39-.32.47l-9,3.5c-.06.02-.12.03-.18.03Z"/>
  <path class="cls-2" d="M9.89,20c-2.7,0-5.24-1.04-7.14-2.93C1.37,15.7.42,13.99.01,12.11c-.06-.27.11-.54.38-.59.27-.06.54.11.59.38.37,1.69,1.22,3.24,2.46,4.47,1.72,1.7,4.01,2.64,6.44,2.64s4.72-.94,6.44-2.64c1.72-1.7,2.67-3.96,2.67-6.36s-.95-4.66-2.67-6.36c-1.72-1.7-4.01-2.64-6.44-2.64s-4.72.94-6.44,2.64c-1.25,1.23-2.1,2.78-2.46,4.47-.06.27-.33.44-.59.38-.27-.06-.44-.32-.38-.59.41-1.88,1.35-3.6,2.74-4.97C4.66,1.04,7.2,0,9.89,0s5.24,1.04,7.14,2.93c1.91,1.89,2.96,4.4,2.96,7.07s-1.05,5.18-2.96,7.07c-1.91,1.89-4.45,2.93-7.14,2.93Z"/>
</svg>