<?xml version="1.0" encoding="UTF-8"?>
<svg id="Layer_1" data-name="Layer 1" xmlns="http://www.w3.org/2000/svg" viewBox="0 0 20 20">
  <defs>
    <style>
      .cls-1 {
        fill: #00386c;
      }

      .cls-2 {
        fill: #00adee;
      }
    </style>
  </defs>
  <rect class="cls-1" x="2.4" y="7.5" width="15.2" height="1"/>
  <rect class="cls-1" x="2.4" y="11.5" width="15.2" height="1"/>
  <path class="cls-2" d="m2.3,13.5h-1.2c-.58,0-1.1-.52-1.1-1.1v-4.8c0-.58.52-1.1,1.1-1.1h1.2c.58,0,1.1.52,1.1,1.1v4.8c0,.58-.52,1.1-1.1,1.1Zm0-6h-1.2s-.09.07-.1.1v4.8s.07.09.11.1h1.19s.1-.07.1-.11v-4.79s-.07-.09-.1-.1Z"/>
  <path class="cls-2" d="m18.9,13.5h-1.2c-.58,0-1.1-.52-1.1-1.1v-4.8c0-.58.52-1.1,1.1-1.1h1.2c.58,0,1.1.52,1.1,1.1v4.8c0,.58-.52,1.1-1.1,1.1Zm0-6h-1.2s-.09.07-.1.11v4.79s.07.09.11.1h1.19s.1-.07.1-.11v-4.79s-.07-.09-.1-.1Z"/>
</svg>