<?xml version="1.0" encoding="UTF-8"?>
<svg id="Layer_1" data-name="Layer 1" xmlns="http://www.w3.org/2000/svg" viewBox="0 0 50 20">
  <defs>
    <style>
      .cls-1, .cls-2 {
        fill: #00386c;
      }

      .cls-3 {
        fill: #00adee;
        transform-origin: 25px 13px;
        transform: rotate(90deg);

      }

	  
      .cls-2 {
        font-family: FranklinGothic-Medium, 'Franklin Gothic Medium';
        font-size: 9px;
        font-weight: 500;
      }
	  
    </style>
  </defs>
  <path class="cls-1" d="M34.8,10.99c-.3-1.5-.95-2.93-1.87-4.14-.26-.34-.54-.65-.84-.95,0,0-.01-.02-.02-.03-.01-.01-.03-.02-.05-.03-.76-.75-1.64-1.39-2.6-1.87-1.33-.66-2.81-.99-4.29-1.01-.04-.01-.08-.03-.13-.03s-.09.01-.13.03c-1.48.02-2.96.35-4.29,1-.96.47-1.84,1.11-2.6,1.86-.02.01-.03.02-.05.03,0,0-.01.02-.02.03-.3.3-.58.62-.84.95-.93,1.21-1.58,2.64-1.87,4.14-.3,1.49-.25,3.06.15,4.54,0,0,0,0,0,0,0,0,0,0,0,0,0,0,0,0,0,0,.03.1.09.18.16.24.01.01.03.03.04.04.08.05.16.08.26.09,0,0,.01,0,.02,0,.04,0,.08,0,.12-.01,0,0,0,0,.01,0,0,0,0,0,0,0l2.03-.54c.27-.07.42-.35.35-.61s-.34-.42-.61-.35l-1.53.41c-.25-1.18-.27-2.41-.03-3.59.27-1.35.85-2.63,1.69-3.72.14-.18.29-.34.44-.51l1.12,1.12c.1.1.23.15.35.15s.26-.05.35-.15c.2-.2.2-.51,0-.71l-1.12-1.12c.61-.54,1.28-1.01,2.01-1.37,1.08-.53,2.27-.82,3.48-.88v1.57c0,.28.22.5.5.5s.5-.22.5-.5v-1.57c1.21.06,2.4.35,3.48.88.73.36,1.4.83,2.01,1.37l-1.12,1.12c-.2.2-.2.51,0,.71.1.1.23.15.35.15s.26-.05.35-.15l1.12-1.12c.15.17.31.33.44.51.83,1.09,1.42,2.38,1.69,3.72.23,1.18.21,2.41-.03,3.59l-1.53-.41c-.27-.06-.54.09-.61.35-.07.27.09.54.35.61l2.04.55s0,0,0,0c.04.01.09.02.13.02.22,0,.42-.15.48-.37.39-1.47.45-3.04.15-4.54Z"/>
  <path id="arrow" class="cls-3" d="M23.77,14.38c-.09-.07-.16-.14-.24-.22-.28-.31-.43-.7-.42-1.09,0-.78.65-4.25,1.2-7.03.07-.38.37-.65.72-.65.35,0,.65.27.72.65.76,4.05,1.15,6.42,1.15,7.04h0c0,.95-.86,1.71-1.9,1.71-.46,0-.89-.15-1.22-.41Z"/>
  <text id="max_box" class="cls-2" transform="translate(37.16 17.17) scale(.99 1)"><tspan x="0" y="0">12</tspan></text>
  <text id="min_box" class="cls-2" transform="translate(8.01 17.17) scale(.99 1)"><tspan x="0" y="0">5</tspan></text>
</svg>