<?xml version="1.0" encoding="utf-8"?>
<!-- Generator: Adobe Illustrator 28.4.1, SVG Export Plug-In . SVG Version: 6.00 Build 0)  -->
<svg version="1.1" id="Layer_1" xmlns="http://www.w3.org/2000/svg" xmlns:xlink="http://www.w3.org/1999/xlink" x="0px" y="0px"
	 viewBox="0 0 16 16" style="enable-background:new 0 0 16 16;" xml:space="preserve">
<style type="text/css">
	.st0{fill:#00386C;}
	
	
@keyframes turbine_rotation {
    0% {
            transform: rotate(0deg);
    }

	100% {
            transform: rotate(360deg);
	}
}

#turbine {
            transform-origin: center center;

	animation: turbine_rotation 10s infinite linear ;
}

</style>
<path class="st0" d="M8.1,0c4.5,0.1,8,3.7,7.9,8.2c-0.1,4.5-3.8,7.9-8.2,7.8C3.4,15.9-0.1,12.3,0,7.9C0.1,3.4,3.7-0.1,8.1,0z
	 M8,14.7c3.7,0,6.6-3,6.6-6.7c0-3.7-2.9-6.6-6.6-6.6c-3.8,0-6.7,3-6.7,6.7C1.4,11.8,4.3,14.7,8,14.7L8,14.7z"/>
<path id="turbine" class="st0" d="M11.7,4.1c-0.7,0.8-1.4,1.5-2,2.1c0,0,0.1,0.1,0.1,0.1C10.5,6.2,11.3,6,12,5.8c0.8-0.2,1,0.1,1,0.8
	c-0.9,0.3-1.9,0.5-2.8,0.8c0,0.1,0,0.1,0,0.2c0.8,0.2,1.6,0.4,2.4,0.6c0.6,0.2,0.8,0.5,0.4,1.1c-0.9-0.2-1.8-0.4-3-0.7
	c0.6,0.7,1.6,1.5,1.9,2c0.4,0.7,0,0.9-0.2,1.1c-0.7-0.7-1.4-1.3-2.1-2L9.6,9.7c0.2,0.8,0.4,1.5,0.7,2.3c0.2,0.7,0,1-0.8,1
	c-0.3-0.9-0.5-1.9-0.8-2.8c-0.1,0-0.1,0-0.2,0c-0.2,0.8-0.4,1.5-0.6,2.3c-0.2,0.6-0.5,0.9-1.2,0.5c0.2-0.9,0.5-1.8,0.7-2.9
	c-0.7,0.7-1.3,1.2-1.9,1.8c-0.5,0.5-0.9,0.5-1.2-0.1c0.7-0.7,1.3-1.4,2-2.1c0-0.1-0.1-0.1-0.1-0.2C5.5,9.8,4.7,10,4,10.2
	c-0.7,0.2-1-0.1-1-0.8c0.9-0.3,1.9-0.6,2.8-0.8c0-0.1,0-0.1,0-0.2C4.9,8.3,4.2,8.1,3.4,7.9C2.7,7.7,2.5,7.4,2.9,6.7
	C3.8,7,4.8,7.2,5.7,7.4c0-0.1,0.1-0.1,0.1-0.2c-0.5-0.4-1-0.9-1.4-1.3C3.9,5.5,3.3,5,4.2,4.4c0.7,0.7,1.4,1.3,2.1,2
	c0,0,0.1-0.1,0.1-0.1C6.2,5.5,6,4.8,5.8,4c-0.2-0.7,0-1.1,0.7-1.1c0.3,0.9,0.6,1.9,0.8,2.8c0.1,0,0.1,0,0.2,0
	c0.2-0.8,0.3-1.6,0.6-2.4c0.2-0.8,0.3-0.7,1.1-0.4C9,3.8,8.8,4.8,8.5,5.8C9.5,5,10,4.5,10.5,4C11.3,3.2,11.5,4,11.7,4.1L11.7,4.1z
	 M10,7.9C10,6.9,9.1,6,8,6C6.9,6,6,6.9,6,8c0,1.1,0.9,2,2.1,1.9C9.2,9.9,10,9.1,10,7.9L10,7.9z"/>
<circle class="st0" cx="8" cy="8" r="1.3"/>
</svg>
